# This file uses centimeters as units for non-parametric coordinates.

mtllib rock.mtl
g default
v -7.743839 -0.010091 -2.106211
v -8.459988 -0.010091 -1.587372
v -8.379005 -0.010091 -0.620336
v -7.566680 -0.010091 0.271351
v -6.678373 -0.010091 0.063443
v -5.770455 -0.010091 -0.207244
v -5.701233 -0.010091 -1.300590
v -6.619969 -0.010091 -1.943343
v -7.546747 0.593952 -2.345521
v -8.463448 0.288158 -1.588851
v -8.362759 0.587326 -0.538360
v -7.837746 0.381647 0.342732
v -6.771180 0.411213 0.105255
v -5.668525 0.312585 -0.273498
v -5.694770 0.428575 -1.435688
v -6.579188 0.211030 -2.017308
v -7.429434 0.995248 -1.972829
v -8.114169 0.842812 -1.428201
v -7.963802 1.025156 -0.670054
v -7.549608 0.655091 0.181935
v -6.538846 0.684988 -0.262702
v -5.912935 0.661719 -0.498588
v -6.102006 0.711139 -1.493442
v -6.604293 0.874586 -1.603029
v -7.266717 1.094860 -1.487894
v -7.621159 1.109167 -1.214765
v -7.645764 1.069342 -0.762706
v -7.265472 0.873058 -0.405401
v -6.903209 0.803499 -0.380773
v -6.788145 0.977985 -0.877160
v -6.868112 0.975690 -1.194934
v -6.919115 1.007819 -1.508859
vt 0.432905 0.345462
vt 0.432905 0.173296
vt 0.502371 0.345726
vt 0.572051 0.158701
vt 0.573594 0.480439
vt 0.432905 0.014544
vt 0.631556 0.317124
vt 0.432905 0.437834
vt 0.667060 0.414087
vt 0.524146 0.001836
vt 0.674026 0.182147
vt 0.010285 0.819238
vt 0.010285 0.624583
vt 0.085440 0.807442
vt 0.112455 0.600531
vt 0.010285 0.510151
vt 0.166757 0.767368
vt 0.061787 0.496983
vt 0.178268 0.590249
vt 0.001992 0.365492
vt 0.030988 0.165403
vt 0.094364 0.492991
vt 0.145421 0.001836
vt 0.340075 0.014160
vt 0.388267 0.175801
vt 0.425282 0.333951
vt 0.266530 0.478573
vt 0.714566 0.704248
vt 0.802940 0.683762
vt 0.718951 0.768743
vt 0.735541 0.527945
vt 0.782564 0.836449
vt 0.614384 0.819330
vt 0.693545 0.639378
vt 0.912660 0.561606
vt 0.863046 0.832068
vt 0.766068 0.893071
vt 0.695467 0.484431
vt 0.859515 0.697999
vt 0.911672 0.768965
vt 0.901045 0.919841
vt 0.628036 0.680742
vt 0.585757 0.870628
vt 0.932170 0.651030
vt 0.998008 0.797934
vt 0.915405 0.707080
vt 0.424693 0.834921
vt 0.424693 0.676771
vt 0.515933 0.883180
vt 0.522819 0.693294
vt 0.424693 0.515130
vt 0.579621 0.831881
vt 0.499848 0.496983
vt 0.418558 0.661701
vt 0.418558 0.861789
vt 0.367056 0.654440
vt 0.277869 0.826700
vt 0.212507 0.658910
vt 0.184403 0.805814
vt 0.250575 0.569485
vt 0.316388 0.496983
vn -0.581844 -0.128329 -0.803112
vn -0.581844 -0.128329 -0.803112
vn -0.581844 -0.128329 -0.803112
vn -0.634315 -0.011189 -0.772994
vn -0.634315 -0.011189 -0.772994
vn -0.634315 -0.011189 -0.772994
vn -0.996450 -0.011147 0.083447
vn -0.996450 -0.011147 0.083447
vn -0.996450 -0.011147 0.083447
vn -0.995718 0.014550 0.091295
vn -0.995718 0.014550 0.091295
vn -0.995718 0.014550 0.091295
vn -0.737313 -0.072122 0.671690
vn -0.737313 -0.072122 0.671690
vn -0.737313 -0.072122 0.671690
vn -0.753097 -0.578277 0.313753
vn -0.753097 -0.578277 0.313753
vn -0.753096 -0.578277 0.313753
vn 0.227847 -0.019728 0.973497
vn 0.227847 -0.019728 0.973497
vn 0.227847 -0.019728 0.973497
vn 0.218361 -0.048627 0.974656
vn 0.218361 -0.048627 0.974656
vn 0.218361 -0.048627 0.974656
vn 0.285565 -0.032153 0.957820
vn 0.285565 -0.032153 0.957820
vn 0.285565 -0.032153 0.957820
vn 0.330656 0.088470 0.939595
vn 0.330656 0.088470 0.939595
vn 0.330656 0.088470 0.939595
vn 0.955309 -0.289355 0.060483
vn 0.955309 -0.289355 0.060483
vn 0.955309 -0.289355 0.060483
vn 0.999442 -0.022366 -0.024802
vn 0.999442 -0.022366 -0.024802
vn 0.999442 -0.022366 -0.024802
vn 0.554692 -0.252352 -0.792865
vn 0.554692 -0.252352 -0.792865
vn 0.554693 -0.252352 -0.792865
vn 0.573153 -0.353068 -0.739485
vn 0.573153 -0.353068 -0.739485
vn 0.573153 -0.353068 -0.739485
vn 0.135049 -0.336628 -0.931903
vn 0.135049 -0.336628 -0.931903
vn 0.135049 -0.336628 -0.931903
vn 0.145818 -0.405149 -0.902547
vn 0.145818 -0.405149 -0.902547
vn 0.145818 -0.405149 -0.902547
vn 0.000000 -1.000000 -0.000000
vn 0.000000 -1.000000 -0.000000
vn 0.000000 -1.000000 -0.000000
vn 0.000000 -1.000000 0.000000
vn 0.000000 -1.000000 0.000000
vn 0.000000 -1.000000 0.000000
vn 0.000000 -1.000000 0.000000
vn 0.000000 -1.000000 0.000000
vn 0.000000 -1.000000 0.000000
vn 0.000000 -1.000000 0.000000
vn 0.000000 -1.000000 0.000000
vn 0.000000 -1.000000 0.000000
vn 0.000000 -1.000000 0.000000
vn 0.000000 -1.000000 0.000000
vn 0.000000 -1.000000 0.000000
vn 0.000000 -1.000000 -0.000000
vn 0.000000 -1.000000 -0.000000
vn 0.000000 -1.000000 -0.000000
vn 0.152401 0.920810 0.359001
vn 0.152401 0.920811 0.359001
vn 0.152401 0.920811 0.359002
vn 0.145549 0.924292 0.352845
vn 0.145549 0.924292 0.352845
vn 0.145549 0.924292 0.352845
vn 0.117791 0.988626 0.093506
vn 0.117791 0.988626 0.093506
vn 0.117791 0.988626 0.093506
vn 0.115754 0.988388 0.098441
vn 0.115754 0.988388 0.098441
vn 0.115754 0.988388 0.098441
vn 0.348184 0.932666 -0.094354
vn 0.348184 0.932666 -0.094354
vn 0.348184 0.932666 -0.094354
vn 0.245832 0.967510 0.059080
vn 0.245832 0.967510 0.059080
vn 0.245832 0.967510 0.059081
vn -0.609233 0.627904 -0.484327
vn -0.609233 0.627904 -0.484327
vn -0.609233 0.627904 -0.484327
vn -0.592862 0.545047 -0.592823
vn -0.592861 0.545047 -0.592823
vn -0.592861 0.545047 -0.592823
vn -0.833704 0.546976 -0.075863
vn -0.833704 0.546976 -0.075863
vn -0.833704 0.546976 -0.075863
vn -0.741232 0.671095 -0.014394
vn -0.741232 0.671095 -0.014394
vn -0.741232 0.671095 -0.014394
vn -0.565079 0.662719 0.491415
vn -0.565079 0.662719 0.491415
vn -0.565079 0.662719 0.491415
vn -0.413666 0.744254 0.524372
vn -0.413666 0.744254 0.524372
vn -0.413666 0.744254 0.524372
vn 0.195870 0.335467 0.921465
vn 0.195870 0.335467 0.921465
vn 0.195870 0.335467 0.921465
vn 0.279285 0.677502 0.680434
vn 0.279285 0.677502 0.680434
vn 0.279285 0.677502 0.680434
vn 0.294432 0.668296 0.683148
vn 0.294432 0.668296 0.683148
vn 0.294432 0.668296 0.683148
vn 0.288175 0.653179 0.700223
vn 0.288175 0.653179 0.700223
vn 0.288175 0.653179 0.700223
vn 0.806005 0.590505 0.040732
vn 0.806005 0.590505 0.040732
vn 0.806005 0.590505 0.040732
vn 0.575289 0.815047 -0.068845
vn 0.575289 0.815047 -0.068845
vn 0.575290 0.815047 -0.068845
vn 0.416527 0.437410 -0.796980
vn 0.416527 0.437410 -0.796981
vn 0.416527 0.437410 -0.796981
vn 0.338076 0.507577 -0.792509
vn 0.338076 0.507577 -0.792509
vn 0.338076 0.507577 -0.792509
vn 0.447051 0.485834 -0.751073
vn 0.447051 0.485834 -0.751073
vn 0.447051 0.485834 -0.751073
vn 0.406413 0.555155 -0.725693
vn 0.406413 0.555155 -0.725693
vn 0.406413 0.555156 -0.725693
vn -0.383041 0.894312 -0.231270
vn -0.383041 0.894312 -0.231270
vn -0.383041 0.894312 -0.231270
vn -0.091919 0.981031 -0.170673
vn -0.091919 0.981031 -0.170673
vn -0.091919 0.981031 -0.170673
vn -0.190162 0.962442 -0.193763
vn -0.190162 0.962442 -0.193763
vn -0.190162 0.962442 -0.193763
vn -0.491361 0.869528 0.049859
vn -0.491361 0.869528 0.049859
vn -0.491361 0.869528 0.049859
vn 0.060375 0.925932 0.372833
vn 0.060375 0.925932 0.372833
vn 0.060375 0.925932 0.372833
vn 0.014219 0.882678 0.469763
vn 0.014219 0.882678 0.469763
vn 0.014219 0.882678 0.469763
vn 0.156529 0.895766 0.416056
vn 0.156529 0.895765 0.416056
vn 0.156529 0.895765 0.416056
vn 0.145721 0.902449 0.405403
vn 0.145721 0.902449 0.405403
vn 0.145721 0.902449 0.405404
vn 0.174912 0.910668 0.374286
vn 0.174912 0.910668 0.374286
vn 0.174912 0.910668 0.374286
vn 0.174194 0.915661 0.362245
vn 0.174194 0.915661 0.362245
vn 0.174194 0.915661 0.362245
vn 0.347204 0.937589 -0.019410
vn 0.347204 0.937589 -0.019410
vn 0.347204 0.937589 -0.019410
vn 0.296779 0.951457 -0.081554
vn 0.296779 0.951457 -0.081554
vn 0.296779 0.951457 -0.081554
vn 0.315410 0.948447 -0.031073
vn 0.315410 0.948447 -0.031073
vn 0.315410 0.948447 -0.031073
vn 0.397011 0.917343 0.029385
vn 0.397011 0.917343 0.029385
vn 0.397011 0.917343 0.029385
vn 0.281062 0.899871 -0.333520
vn 0.281062 0.899871 -0.333520
vn 0.281062 0.899871 -0.333520
vn 0.218989 0.938685 -0.266299
vn 0.218989 0.938685 -0.266299
vn 0.218989 0.938685 -0.266299
s off
g polySurface3
usemtl lambert9SG
f 1/8/1 2/1/2 9/5/3
f 9/5/4 2/1/5 10/3/6
f 2/1/7 3/2/8 10/3/9
f 10/3/10 3/2/11 11/4/12
f 3/2/13 4/6/14 11/4/15
f 11/4/16 4/6/17 12/10/18
f 4/47/19 5/48/20 12/49/21
f 12/49/22 5/48/23 13/50/24
f 5/48/25 6/51/26 13/50/27
f 13/50/28 6/51/29 14/53/30
f 6/12/31 7/13/32 14/14/33
f 14/14/34 7/13/35 15/15/36
f 7/13/37 8/16/38 15/15/39
f 15/15/40 8/16/41 16/18/42
f 8/54/43 1/55/44 16/56/45
f 16/56/46 1/55/47 9/57/48
f 1/20/49 8/21/50 2/22/51
f 8/21/52 7/23/53 2/22/54
f 7/23/55 6/24/56 2/22/57
f 6/24/58 5/25/59 2/22/60
f 5/25/61 4/26/62 2/22/63
f 4/26/64 3/27/65 2/22/66
f 29/28/67 30/29/68 28/30/69
f 28/30/70 30/29/71 27/32/72
f 27/32/73 30/29/74 26/36/75
f 26/36/76 30/29/77 25/40/78
f 30/29/79 31/39/80 25/40/81
f 25/40/82 31/39/83 32/46/84
f 9/5/85 10/3/86 17/9/87
f 17/9/88 10/3/89 18/7/90
f 10/3/91 11/4/92 18/7/93
f 18/7/94 11/4/95 19/11/96
f 11/4/97 12/10/98 19/11/99
f 19/37/100 12/43/101 20/33/102
f 12/49/103 13/50/104 20/52/105
f 20/33/106 13/42/107 21/34/108
f 13/42/109 14/38/110 21/34/111
f 21/34/112 14/38/113 22/31/114
f 14/14/115 15/15/116 22/17/117
f 22/17/118 15/15/119 23/19/120
f 15/61/121 16/56/122 23/60/123
f 23/60/124 16/56/125 24/58/126
f 16/56/127 9/57/128 24/58/129
f 24/58/130 9/57/131 17/59/132
f 18/41/133 26/36/134 17/45/135
f 17/45/136 26/36/137 25/40/138
f 19/37/139 27/32/140 18/41/141
f 18/41/142 27/32/143 26/36/144
f 20/33/145 28/30/146 19/37/147
f 19/37/148 28/30/149 27/32/150
f 21/34/151 29/28/152 20/33/153
f 20/33/154 29/28/155 28/30/156
f 21/34/157 22/31/158 29/28/159
f 29/28/160 22/31/161 30/29/162
f 22/31/163 23/35/164 30/29/165
f 30/29/166 23/35/167 31/39/168
f 23/35/169 24/44/170 31/39/171
f 31/39/172 24/44/173 32/46/174
f 24/44/175 17/45/176 32/46/177
f 32/46/178 17/45/179 25/40/180
