# This file uses centimeters as units for non-parametric coordinates.

mtllib SnowPile_Small.mtl
g default
v -11.678966 21.409273 -78.665001
v -8.789614 21.088898 -75.663185
v -5.823409 20.812571 -72.971100
v -3.053327 20.615067 -70.736481
v 0.304064 20.374022 -68.137299
v 2.551362 20.537550 -66.756874
v 4.029421 21.368670 -66.873192
v 7.334315 21.129318 -64.899529
v 11.612741 20.716854 -61.789467
v 15.503119 19.023287 -54.895699
v 21.521269 18.840061 -47.935535
v 34.064838 16.286636 -32.745792
v -0.306833 22.693047 -71.475502
v 17.179344 19.747076 -55.514053
v 25.393377 19.633842 -43.468586
v 32.590202 18.172394 -35.851967
v 37.680614 15.738824 -28.355087
v 5.331130 22.394777 -67.540138
v 20.687336 19.668631 -49.789738
v 22.546343 20.141710 -48.910622
v 27.808615 19.911707 -43.674221
v 38.898495 15.793182 -28.597868
v 8.667688 22.480127 -67.402672
v 14.549490 21.032587 -62.071507
v 27.893723 21.989481 -43.564331
v 31.896711 20.439274 -39.367741
v 36.838604 16.843163 -34.671318
v 39.446770 17.237476 -31.690441
v 41.595795 15.717265 -28.941608
v -4.057577 21.941830 -84.570557
v 18.738325 21.164396 -57.292366
v 26.928364 20.608946 -47.040554
v 38.626560 17.881216 -35.901642
v 11.131506 22.070873 -66.836334
v 32.621525 18.215429 -43.767639
v 34.044956 20.004028 -39.698593
v 41.895149 18.638077 -31.880053
v 43.644703 15.821329 -29.845699
v 42.737904 15.695689 -29.325428
v 3.459330 23.249657 -75.794281
v 9.495420 22.566072 -70.067932
v 14.857332 21.401182 -65.108459
v 18.179813 21.000702 -60.756119
v 18.840210 22.563663 -59.559486
v 26.868219 20.887293 -51.875072
v 33.295013 18.685883 -47.211933
v 37.235237 18.430639 -40.001354
v 44.831230 19.180363 -31.260277
v 20.979071 20.761013 -60.747398
v 27.774292 20.353317 -55.494152
v 40.418156 18.720364 -40.597317
v 44.977764 17.393744 -32.055901
v 45.335999 15.764612 -29.884197
v 14.151496 21.368256 -69.200745
v 33.192635 19.143250 -49.719738
v 46.788326 15.769015 -29.901899
v 8.493598 21.297169 -75.603508
v 22.090042 20.246113 -63.164848
v 28.660563 19.206200 -56.762451
v 47.732189 15.889113 -30.697929
v -0.560425 21.749788 -82.874268
v 3.432357 21.468143 -80.012108
v 11.553835 21.680557 -72.714813
v 16.926445 20.679195 -68.729362
v 20.139311 20.189447 -66.216286
v 22.448547 19.839445 -64.238373
v 25.206787 19.492413 -61.385719
v 38.870251 17.832689 -43.121910
v 48.458321 15.856384 -31.356211
vt 0.000000 0.000000
vt 0.058824 0.000000
vt 0.117647 0.000000
vt 0.176471 0.000000
vt 0.235294 0.000000
vt 0.294118 0.000000
vt 0.352941 0.000000
vt 0.411765 0.000000
vt 0.470588 0.000000
vt 0.529412 0.000000
vt 0.588235 0.000000
vt 1.000000 0.000000
vt 0.176471 0.300000
vt 0.470588 0.300000
vt 0.705882 0.100000
vt 0.823529 0.200000
vt 1.000000 0.100000
vt 0.294118 0.300000
vt 0.588235 0.200000
vt 0.647059 0.200000
vt 0.705882 0.200000
vt 1.000000 0.200000
vt 0.294118 0.500000
vt 0.411765 0.400000
vt 0.705882 0.400000
vt 0.764706 0.400000
vt 0.882353 0.300000
vt 0.941176 0.300000
vt 1.000000 0.400000
vt 0.000000 1.000000
vt 0.529412 0.400000
vt 0.588235 0.500000
vt 0.823529 0.400000
vt 0.352941 0.500000
vt 0.647059 0.500000
vt 0.764706 0.500000
vt 0.882353 0.500000
vt 1.000000 0.600000
vt 1.000000 0.500000
vt 0.117647 0.800000
vt 0.235294 0.700000
vt 0.352941 0.700000
vt 0.411765 0.600000
vt 0.529412 0.600000
vt 0.588235 0.600000
vt 0.647059 0.700000
vt 0.705882 0.600000
vt 0.882353 0.600000
vt 0.470588 0.700000
vt 0.529412 0.800000
vt 0.705882 0.800000
vt 0.941176 0.800000
vt 1.000000 0.700000
vt 0.294118 0.900000
vt 0.588235 0.800000
vt 1.000000 0.800000
vt 0.176471 1.000000
vt 0.411765 0.900000
vt 0.529412 1.000000
vt 1.000000 0.900000
vt 0.058824 1.000000
vt 0.117647 1.000000
vt 0.235294 1.000000
vt 0.294118 1.000000
vt 0.352941 1.000000
vt 0.411765 1.000000
vt 0.470588 1.000000
vt 0.647059 1.000000
vt 1.000000 1.000000
vn -0.051581 0.986576 0.154944
vn -0.051581 0.986576 0.154944
vn -0.051581 0.986576 0.154944
vn -0.100634 0.972361 0.210682
vn -0.100634 0.972361 0.210682
vn -0.100634 0.972361 0.210682
vn -0.402685 0.715570 0.570793
vn -0.402685 0.715570 0.570793
vn -0.402685 0.715570 0.570794
vn -0.371215 0.738873 0.562375
vn -0.371215 0.738873 0.562375
vn -0.371215 0.738873 0.562375
vn -0.253203 0.896659 0.363169
vn -0.253203 0.896659 0.363169
vn -0.253203 0.896659 0.363169
vn -0.292834 0.915073 0.277289
vn -0.292834 0.915073 0.277289
vn -0.292834 0.915073 0.277289
vn -0.760424 0.090254 0.643125
vn -0.760424 0.090254 0.643125
vn -0.760424 0.090254 0.643125
vn -0.524677 0.594072 0.609748
vn -0.524677 0.594072 0.609748
vn -0.524677 0.594072 0.609748
vn -0.651259 0.470908 0.595069
vn -0.651259 0.470908 0.595069
vn -0.651259 0.470908 0.595069
vn -0.391289 0.720696 0.572268
vn -0.391289 0.720696 0.572268
vn -0.391288 0.720696 0.572268
vn -0.334466 0.773873 0.537823
vn -0.334466 0.773873 0.537823
vn -0.334466 0.773873 0.537823
vn -0.295061 0.754962 0.585637
vn -0.295061 0.754962 0.585637
vn -0.295061 0.754962 0.585637
vn -0.384407 0.684360 0.619583
vn -0.384407 0.684360 0.619583
vn -0.384407 0.684360 0.619583
vn -0.810140 0.304991 0.500654
vn -0.810140 0.304991 0.500654
vn -0.810140 0.304991 0.500654
vn -0.706099 0.471532 0.528281
vn -0.706099 0.471532 0.528281
vn -0.706099 0.471532 0.528281
vn -0.355173 0.895156 0.269347
vn -0.355173 0.895156 0.269347
vn -0.355173 0.895156 0.269347
vn -0.100926 0.984321 0.144661
vn -0.100926 0.984321 0.144661
vn -0.100926 0.984321 0.144661
vn -0.087679 0.959703 0.266989
vn -0.087679 0.959703 0.266989
vn -0.087679 0.959703 0.266989
vn 0.016875 0.954316 0.298324
vn 0.016875 0.954316 0.298324
vn 0.016875 0.954316 0.298324
vn -0.417381 0.739491 0.528154
vn -0.417381 0.739491 0.528154
vn -0.417381 0.739491 0.528154
vn -0.037311 0.947609 0.317247
vn -0.037311 0.947609 0.317247
vn -0.037311 0.947609 0.317247
vn -0.069271 0.940778 0.331871
vn -0.069271 0.940778 0.331871
vn -0.069271 0.940778 0.331871
vn -0.082930 0.971138 0.223639
vn -0.082930 0.971138 0.223639
vn -0.082930 0.971138 0.223639
vn -0.336544 0.915897 0.218794
vn -0.336544 0.915897 0.218794
vn -0.336544 0.915897 0.218794
vn -0.724827 -0.006744 0.688898
vn -0.724827 -0.006744 0.688898
vn -0.724827 -0.006744 0.688898
vn -0.614496 0.602289 0.509552
vn -0.614496 0.602289 0.509552
vn -0.614496 0.602289 0.509552
vn 0.119521 0.844991 0.521253
vn 0.119521 0.844991 0.521253
vn 0.119521 0.844991 0.521254
vn 0.279943 0.957419 0.070573
vn 0.279943 0.957419 0.070573
vn 0.279943 0.957419 0.070573
vn -0.471620 0.828069 0.303113
vn -0.471620 0.828068 0.303113
vn -0.471620 0.828069 0.303113
vn 0.080502 0.897572 0.433456
vn 0.080502 0.897572 0.433456
vn 0.080502 0.897572 0.433456
vn -0.093113 0.995191 -0.030420
vn -0.093113 0.995191 -0.030420
vn -0.093113 0.995191 -0.030420
vn -0.431485 0.850831 0.299846
vn -0.431485 0.850831 0.299846
vn -0.431485 0.850831 0.299846
vn -0.189131 0.960709 0.203145
vn -0.189131 0.960709 0.203145
vn -0.189131 0.960709 0.203145
vn -0.207590 0.945690 0.250155
vn -0.207590 0.945690 0.250155
vn -0.207590 0.945690 0.250155
vn -0.965819 0.025921 0.257918
vn -0.965819 0.025921 0.257918
vn -0.965819 0.025921 0.257918
vn -0.024325 0.781219 0.623783
vn -0.024325 0.781219 0.623783
vn -0.024325 0.781219 0.623783
vn -0.377874 0.901402 0.211390
vn -0.377874 0.901402 0.211390
vn -0.377874 0.901402 0.211390
vn 0.136668 0.983763 0.116332
vn 0.136668 0.983763 0.116332
vn 0.136668 0.983763 0.116332
vn -0.401961 0.854609 0.328742
vn -0.401961 0.854609 0.328742
vn -0.401961 0.854609 0.328742
vn 0.550022 0.712490 -0.435699
vn 0.550022 0.712490 -0.435699
vn 0.550022 0.712490 -0.435699
vn 0.590608 0.755182 -0.284399
vn 0.590608 0.755182 -0.284399
vn 0.590608 0.755182 -0.284399
vn 0.114451 0.894079 -0.433041
vn 0.114451 0.894079 -0.433041
vn 0.114451 0.894079 -0.433041
vn 0.229067 0.940861 0.249618
vn 0.229067 0.940861 0.249618
vn 0.229067 0.940861 0.249618
vn -0.471103 0.853621 0.222245
vn -0.471103 0.853621 0.222245
vn -0.471103 0.853621 0.222245
vn -0.210519 0.483068 0.849898
vn -0.210519 0.483068 0.849898
vn -0.210519 0.483068 0.849898
vn 0.130353 0.907266 0.399845
vn 0.130353 0.907266 0.399845
vn 0.130353 0.907266 0.399845
vn 0.197378 0.817282 0.541380
vn 0.197378 0.817282 0.541380
vn 0.197378 0.817282 0.541380
vn -0.158723 0.987260 -0.011174
vn -0.158723 0.987260 -0.011174
vn -0.158723 0.987260 -0.011174
vn -0.022894 0.993873 0.108127
vn -0.022894 0.993873 0.108127
vn -0.022894 0.993873 0.108127
vn -0.029933 0.993516 0.109686
vn -0.029933 0.993515 0.109686
vn -0.029933 0.993516 0.109686
vn 0.146084 0.986258 0.077172
vn 0.146084 0.986258 0.077172
vn 0.146084 0.986258 0.077172
vn 0.140160 0.986870 0.080266
vn 0.140160 0.986870 0.080266
vn 0.140160 0.986870 0.080266
vn 0.116090 0.984528 0.131257
vn 0.116090 0.984528 0.131257
vn 0.116090 0.984528 0.131257
vn -0.033694 0.992554 0.117053
vn -0.033694 0.992554 0.117053
vn -0.033694 0.992554 0.117053
vn 0.027467 0.998290 -0.051609
vn 0.027467 0.998290 -0.051609
vn 0.027467 0.998290 -0.051609
vn -0.945851 0.293503 0.138642
vn -0.945851 0.293503 0.138642
vn -0.945851 0.293503 0.138642
vn -0.498704 0.747434 0.438904
vn -0.498704 0.747434 0.438904
vn -0.498704 0.747434 0.438904
vn 0.153477 0.986626 0.054897
vn 0.153477 0.986626 0.054897
vn 0.153477 0.986626 0.054897
vn 0.362997 0.930498 0.049058
vn 0.362997 0.930498 0.049058
vn 0.362997 0.930498 0.049058
vn 0.205400 0.963487 0.171765
vn 0.205400 0.963487 0.171765
vn 0.205400 0.963487 0.171765
vn -0.134333 0.985003 0.108274
vn -0.134333 0.985003 0.108274
vn -0.134333 0.985003 0.108274
vn 0.351896 0.805328 -0.477092
vn 0.351896 0.805328 -0.477092
vn 0.351896 0.805328 -0.477092
vn 0.439913 0.897572 -0.029006
vn 0.439913 0.897572 -0.029006
vn 0.439913 0.897572 -0.029006
vn -0.371504 0.895234 0.246052
vn -0.371504 0.895234 0.246052
vn -0.371504 0.895234 0.246052
vn -0.172197 0.984023 -0.045240
vn -0.172197 0.984023 -0.045240
vn -0.172197 0.984023 -0.045240
vn -0.263381 0.451950 0.852274
vn -0.263381 0.451950 0.852274
vn -0.263381 0.451950 0.852274
vn 0.063631 0.996623 0.051899
vn 0.063631 0.996623 0.051899
vn 0.063631 0.996623 0.051899
vn 0.085202 0.996008 0.026606
vn 0.085202 0.996009 0.026606
vn 0.085202 0.996008 0.026606
vn 0.053260 0.592760 -0.803616
vn 0.053260 0.592760 -0.803616
vn 0.053260 0.592760 -0.803616
vn 0.490326 0.803789 -0.336902
vn 0.490326 0.803789 -0.336902
vn 0.490326 0.803789 -0.336902
vn 0.355182 0.933522 -0.048812
vn 0.355182 0.933522 -0.048812
vn 0.355182 0.933522 -0.048812
vn -0.076114 0.994138 0.076783
vn -0.076114 0.994138 0.076783
vn -0.076114 0.994138 0.076783
vn -0.091709 0.995770 -0.005712
vn -0.091709 0.995770 -0.005712
vn -0.091709 0.995770 -0.005712
vn 0.886512 -0.125607 0.445330
vn 0.886512 -0.125607 0.445330
vn 0.886512 -0.125607 0.445330
vn 0.040461 0.802475 0.595313
vn 0.040461 0.802475 0.595312
vn 0.040461 0.802475 0.595312
vn 0.257923 0.964752 -0.052249
vn 0.257923 0.964752 -0.052249
vn 0.257923 0.964752 -0.052249
vn 0.124720 0.991754 -0.029492
vn 0.124720 0.991754 -0.029492
vn 0.124720 0.991754 -0.029492
vn 0.143445 0.983614 -0.109213
vn 0.143445 0.983614 -0.109213
vn 0.143445 0.983614 -0.109213
vn 0.029785 0.983550 0.178162
vn 0.029785 0.983550 0.178162
vn 0.029785 0.983550 0.178162
vn -0.175138 0.967281 0.183559
vn -0.175138 0.967281 0.183559
vn -0.175138 0.967281 0.183559
vn 0.868100 0.259611 -0.423090
vn 0.868100 0.259611 -0.423090
vn 0.868100 0.259611 -0.423090
vn 0.004882 0.800315 0.599560
vn 0.004882 0.800315 0.599560
vn 0.004882 0.800315 0.599560
vn 0.357070 0.894318 -0.269623
vn 0.357070 0.894318 -0.269623
vn 0.357070 0.894318 -0.269623
vn 0.286026 0.921429 -0.262981
vn 0.286026 0.921429 -0.262981
vn 0.286026 0.921429 -0.262981
vn 0.218046 0.970119 -0.106422
vn 0.218046 0.970119 -0.106422
vn 0.218046 0.970119 -0.106422
vn 0.162064 0.977673 -0.133759
vn 0.162064 0.977673 -0.133759
vn 0.162064 0.977673 -0.133759
vn 0.488095 0.789202 -0.372724
vn 0.488095 0.789202 -0.372724
vn 0.488095 0.789202 -0.372724
vn 0.530221 0.779199 -0.334239
vn 0.530221 0.779198 -0.334239
vn 0.530221 0.779198 -0.334239
vn 0.531108 0.833171 -0.154111
vn 0.531108 0.833171 -0.154111
vn 0.531108 0.833171 -0.154111
vn 0.256999 0.863010 0.434932
vn 0.256999 0.863010 0.434932
vn 0.256999 0.863010 0.434932
vn 0.202045 0.928544 -0.311423
vn 0.202045 0.928544 -0.311423
vn 0.202045 0.928544 -0.311423
vn 0.326288 0.870032 -0.369567
vn 0.326288 0.870032 -0.369567
vn 0.326288 0.870032 -0.369567
vn 0.348466 0.862658 -0.366596
vn 0.348466 0.862658 -0.366595
vn 0.348466 0.862658 -0.366595
vn -0.510289 0.737286 0.442735
vn -0.510289 0.737286 0.442735
vn -0.510289 0.737286 0.442735
vn 0.256303 0.960979 -0.104060
vn 0.256303 0.960979 -0.104060
vn 0.256303 0.960979 -0.104060
vn 0.264813 0.948857 -0.171884
vn 0.264813 0.948857 -0.171884
vn 0.264813 0.948857 -0.171884
vn 0.309345 0.926335 -0.214963
vn 0.309345 0.926335 -0.214963
vn 0.309345 0.926335 -0.214963
vn 0.337601 0.912058 -0.232759
vn 0.337601 0.912058 -0.232759
vn 0.337601 0.912058 -0.232759
vn 0.349650 0.908835 -0.227518
vn 0.349650 0.908835 -0.227518
vn 0.349650 0.908835 -0.227518
vn 0.332470 0.923530 -0.191198
vn 0.332470 0.923530 -0.191198
vn 0.332470 0.923530 -0.191198
vn 0.607475 0.694964 -0.384706
vn 0.607475 0.694964 -0.384706
vn 0.607475 0.694964 -0.384706
vn 0.745994 0.335405 -0.575323
vn 0.745994 0.335405 -0.575323
vn 0.745994 0.335405 -0.575323
vn 0.815245 0.160726 -0.556365
vn 0.815245 0.160726 -0.556365
vn 0.815245 0.160726 -0.556365
vn 0.112460 0.990838 0.074787
vn 0.112460 0.990838 0.074787
vn 0.112460 0.990838 0.074787
s off
g m_snowpile_small
usemtl lambert25SG
f 1/1/1 2/2/2 4/4/3
f 2/2/4 3/3/5 4/4/6
f 5/5/7 6/6/8 13/13/9
f 13/13/10 6/6/11 7/7/12
f 9/9/13 10/10/14 14/14/15
f 10/10/16 11/11/17 14/14/18
f 11/11/19 12/12/20 15/15/21
f 15/15/22 12/12/23 16/16/24
f 16/16/25 12/12/26 17/17/27
f 4/4/28 5/5/29 13/13/30
f 13/13/31 7/7/32 18/18/33
f 7/7/34 8/8/35 18/18/36
f 18/18/37 8/8/38 9/9/39
f 14/14/40 11/11/41 19/19/42
f 11/11/43 15/15/44 19/19/45
f 19/19/46 15/15/47 20/20/48
f 20/20/49 15/15/50 21/21/51
f 21/21/52 15/15/53 16/16/54
f 16/16/55 17/17/56 22/22/57
f 1/1/58 4/4/59 13/13/60
f 18/18/61 9/9/62 23/23/63
f 23/23/64 9/9/65 24/24/66
f 9/9/67 14/14/68 24/24/69
f 14/14/70 19/19/71 20/20/72
f 25/25/73 21/21/74 26/26/75
f 21/21/76 16/16/77 26/26/78
f 26/26/79 16/16/80 27/27/81
f 16/16/82 22/22/83 27/27/84
f 27/27/85 22/22/86 28/28/87
f 28/28/88 22/22/89 29/29/90
f 30/30/91 1/1/92 13/13/93
f 14/14/94 20/20/95 31/31/96
f 31/31/97 20/20/98 32/32/99
f 20/20/100 21/21/101 32/32/102
f 32/32/103 21/21/104 25/25/105
f 26/26/106 27/27/107 33/33/108
f 27/27/109 28/28/110 33/33/111
f 23/23/112 24/24/113 34/34/114
f 24/24/115 14/14/116 31/31/117
f 32/32/118 25/25/119 35/35/120
f 25/25/121 26/26/122 35/35/123
f 35/35/124 26/26/125 36/36/126
f 26/26/127 33/33/128 36/36/129
f 33/33/130 28/28/131 37/37/132
f 37/37/133 28/28/134 38/38/135
f 28/28/136 29/29/137 38/38/138
f 38/38/139 29/29/140 39/39/141
f 30/30/142 13/13/143 40/40/144
f 13/13/145 18/18/146 40/40/147
f 18/18/148 23/23/149 40/40/150
f 23/23/151 34/34/152 41/41/153
f 41/41/154 34/34/155 42/42/156
f 34/34/157 24/24/158 42/42/159
f 42/42/160 24/24/161 43/43/162
f 24/24/163 31/31/164 43/43/165
f 43/43/166 31/31/167 44/44/168
f 31/31/169 32/32/170 44/44/171
f 44/44/172 32/32/173 45/45/174
f 32/32/175 35/35/176 45/45/177
f 45/45/178 35/35/179 46/46/180
f 46/46/181 35/35/182 47/47/183
f 35/35/184 36/36/185 47/47/186
f 36/36/187 33/33/188 47/47/189
f 47/47/190 33/33/191 48/48/192
f 33/33/193 37/37/194 48/48/195
f 37/37/196 38/38/197 48/48/198
f 40/40/199 23/23/200 41/41/201
f 42/42/202 43/43/203 49/49/204
f 43/43/205 44/44/206 49/49/207
f 49/49/208 44/44/209 45/45/210
f 45/45/211 46/46/212 50/50/213
f 46/46/214 47/47/215 51/51/216
f 47/47/217 48/48/218 51/51/219
f 48/48/220 38/38/221 52/52/222
f 52/52/223 38/38/224 53/53/225
f 41/41/226 42/42/227 54/54/228
f 42/42/229 49/49/230 54/54/231
f 49/49/232 45/45/233 50/50/234
f 50/50/235 46/46/236 55/55/237
f 55/55/238 46/46/239 51/51/240
f 51/51/241 48/48/242 52/52/243
f 52/52/244 53/53/245 56/56/246
f 40/40/247 41/41/248 57/57/249
f 57/57/250 41/41/251 54/54/252
f 54/54/253 49/49/254 58/58/255
f 49/49/256 50/50/257 58/58/258
f 58/58/259 50/50/260 59/59/261
f 50/50/262 55/55/263 59/59/264
f 51/51/265 52/52/266 60/60/267
f 52/52/268 56/56/269 60/60/270
f 30/30/271 40/40/272 61/61/273
f 61/61/274 40/40/275 62/62/276
f 40/40/277 57/57/278 62/62/279
f 57/57/280 54/54/281 63/63/282
f 63/63/283 54/54/284 64/64/285
f 54/54/286 58/58/287 64/64/288
f 64/64/289 58/58/290 65/65/291
f 65/65/292 58/58/293 66/66/294
f 66/66/295 58/58/296 67/67/297
f 58/58/298 59/59/299 67/67/300
f 59/59/301 55/55/302 68/68/303
f 55/55/304 51/51/305 68/68/306
f 51/51/307 60/60/308 68/68/309
f 68/68/310 60/60/311 69/69/312
