# This file uses centimeters as units for non-parametric coordinates.

mtllib caverock.mtl
g default
v -0.584131 -0.008692 -0.845906
v -1.131548 -0.008692 -0.449310
v -1.069645 -0.008692 0.289883
v -0.448712 -0.008692 0.971480
v 0.230302 -0.008692 0.812557
v 0.950297 -0.008692 0.716886
v 0.977218 -0.008692 -0.230097
v 0.274945 -0.008692 -0.721411
v -0.433475 0.511602 -1.028832
v -1.134192 0.248205 -0.450441
v -1.057227 0.505894 0.352545
v -0.655912 0.328732 1.026043
v 0.159361 0.354199 0.844518
v 1.002220 0.199940 0.555003
v 0.982158 0.369154 -0.333364
v 0.306118 0.181771 -0.777949
v -0.343802 0.857259 -0.743950
v -0.867207 0.725958 -0.327641
v -0.752268 0.883020 0.251879
v -0.435662 0.564264 0.903131
v 0.336955 0.590016 0.563255
v 0.815395 0.569973 0.382946
v 0.670871 0.612541 -0.217894
v 0.139186 0.824896 -0.403823
v -0.490355 0.955383 -0.164493
v -0.509163 0.921080 0.181057
v -0.218471 0.752010 0.454177
v 0.058439 0.675542 0.473003
v 0.146393 0.842389 0.093569
vt 0.447244 0.358175
vt 0.447244 0.179717
vt 0.509265 0.358448
vt 0.571477 0.164590
vt 0.572855 0.498085
vt 0.447244 0.015165
vt 0.624605 0.328802
vt 0.447244 0.453922
vt 0.656304 0.429308
vt 0.528706 0.001992
vt 0.662523 0.188893
vt 0.206362 0.875812
vt 0.206362 0.647189
vt 0.256730 0.836730
vt 0.297582 0.622258
vt 0.206362 0.528575
vt 0.346064 0.795192
vt 0.252344 0.514926
vt 0.356341 0.650135
vt 0.001912 0.378936
vt 0.031968 0.171537
vt 0.097659 0.511095
vt 0.150582 0.001992
vt 0.379205 0.008491
vt 0.402302 0.182314
vt 0.440669 0.346243
vt 0.276117 0.496150
vt 0.729913 0.635431
vt 0.751147 0.727035
vt 0.663060 0.639977
vt 0.912659 0.657173
vt 0.592881 0.705914
vt 0.610626 0.531589
vt 0.797153 0.613643
vt 0.877767 0.802229
vt 0.597422 0.789337
vt 0.534190 0.688816
vt 0.957763 0.615635
vt 0.749407 0.847117
vt 0.506441 0.828725
vt 0.754278 0.545739
vt 0.557452 0.501915
vt 0.789708 0.937439
vt 0.632803 0.929231
vt 0.945227 0.576553
vt 0.952919 0.830106
vt 0.611154 0.998008
vt 0.362229 0.852678
vt 0.362229 0.688749
vt 0.443691 0.902700
vt 0.449839 0.705875
vt 0.362229 0.514926
vt 0.500553 0.849527
vt 0.200474 0.522452
vt 0.200474 0.729852
vt 0.154492 0.514926
vt 0.074863 0.693480
vt 0.077548 0.884573
vt 0.001912 0.733682
vt 0.085361 0.802459
vn -0.582864 -0.114082 -0.804521
vn -0.582864 -0.114082 -0.804521
vn -0.582864 -0.114082 -0.804521
vn -0.634324 -0.009933 -0.773003
vn -0.634324 -0.009933 -0.773003
vn -0.634324 -0.009933 -0.773004
vn -0.996463 -0.009890 0.083448
vn -0.996463 -0.009890 0.083448
vn -0.996463 -0.009890 0.083448
vn -0.995740 0.012911 0.091297
vn -0.995740 0.012911 0.091297
vn -0.995740 0.012911 0.091297
vn -0.737721 -0.064036 0.672062
vn -0.737721 -0.064036 0.672062
vn -0.737721 -0.064036 0.672062
vn -0.781364 -0.532447 0.325530
vn -0.781364 -0.532447 0.325530
vn -0.781364 -0.532447 0.325530
vn 0.227856 -0.017507 0.973537
vn 0.227856 -0.017507 0.973537
vn 0.227856 -0.017507 0.973537
vn 0.218416 -0.043165 0.974901
vn 0.218416 -0.043165 0.974901
vn 0.218416 -0.043165 0.974901
vn 0.131470 -0.061440 0.989414
vn 0.131470 -0.061440 0.989414
vn 0.131470 -0.061440 0.989414
vn 0.361310 0.513827 0.778098
vn 0.361310 0.513827 0.778098
vn 0.361310 0.513827 0.778098
vn 0.974854 -0.221114 0.027714
vn 0.974854 -0.221114 0.027714
vn 0.974854 -0.221114 0.027714
vn 0.999445 -0.020292 -0.026436
vn 0.999445 -0.020292 -0.026436
vn 0.999445 -0.020292 -0.026436
vn 0.558483 -0.225476 -0.798284
vn 0.558483 -0.225476 -0.798284
vn 0.558483 -0.225476 -0.798284
vn 0.580898 -0.317555 -0.749477
vn 0.580898 -0.317555 -0.749477
vn 0.580898 -0.317555 -0.749477
vn 0.136705 -0.302397 -0.943328
vn 0.136705 -0.302397 -0.943328
vn 0.136705 -0.302397 -0.943328
vn 0.148429 -0.365981 -0.918709
vn 0.148429 -0.365981 -0.918709
vn 0.148429 -0.365981 -0.918709
vn 0.000000 -1.000000 0.000000
vn 0.000000 -1.000000 0.000000
vn 0.000000 -1.000000 0.000000
vn 0.000000 -1.000000 0.000000
vn 0.000000 -1.000000 0.000000
vn 0.000000 -1.000000 0.000000
vn 0.000000 -1.000000 0.000000
vn 0.000000 -1.000000 0.000000
vn 0.000000 -1.000000 0.000000
vn 0.000000 -1.000000 0.000000
vn 0.000000 -1.000000 0.000000
vn 0.000000 -1.000000 0.000000
vn 0.000000 -1.000000 0.000000
vn 0.000000 -1.000000 0.000000
vn 0.000000 -1.000000 0.000000
vn 0.000000 -1.000000 0.000000
vn 0.000000 -1.000000 0.000000
vn 0.000000 -1.000000 0.000000
vn 0.212243 0.875472 0.434167
vn 0.212243 0.875472 0.434167
vn 0.212243 0.875472 0.434167
vn 0.160880 0.906647 0.390011
vn 0.160880 0.906647 0.390011
vn 0.160880 0.906647 0.390011
vn 0.132330 0.985624 0.105047
vn 0.132330 0.985624 0.105047
vn 0.132330 0.985624 0.105047
vn -0.636474 0.582137 -0.505982
vn -0.636474 0.582137 -0.505982
vn -0.636474 0.582137 -0.505982
vn -0.612507 0.499718 -0.612468
vn -0.612507 0.499718 -0.612468
vn -0.612507 0.499718 -0.612468
vn -0.861536 0.501608 -0.078395
vn -0.861536 0.501608 -0.078395
vn -0.861536 0.501608 -0.078395
vn -0.779463 0.626266 -0.015137
vn -0.779463 0.626266 -0.015137
vn -0.779463 0.626266 -0.015137
vn -0.593445 0.617642 0.516083
vn -0.593445 0.617642 0.516083
vn -0.593445 0.617642 0.516083
vn -0.440393 0.703143 0.558251
vn -0.440393 0.703143 0.558251
vn -0.440393 0.703143 0.558251
vn 0.198255 0.301328 0.932682
vn 0.198255 0.301328 0.932682
vn 0.198255 0.301328 0.932682
vn 0.293988 0.632889 0.716256
vn 0.293988 0.632889 0.716256
vn 0.293988 0.632889 0.716256
vn 0.356539 0.592792 0.722134
vn 0.356539 0.592792 0.722134
vn 0.356539 0.592792 0.722134
vn 0.318911 0.527232 0.787605
vn 0.318911 0.527232 0.787605
vn 0.318911 0.527232 0.787605
vn 0.876806 0.475605 0.070791
vn 0.876806 0.475605 0.070791
vn 0.876806 0.475605 0.070791
vn 0.593642 0.800109 -0.086107
vn 0.593642 0.800109 -0.086107
vn 0.593642 0.800109 -0.086107
vn 0.268416 0.671143 -0.691028
vn 0.268416 0.671143 -0.691028
vn 0.268416 0.671143 -0.691028
vn 0.460946 0.532585 -0.709846
vn 0.460946 0.532585 -0.709846
vn 0.460946 0.532585 -0.709846
vn 0.474927 0.531359 -0.701500
vn 0.474927 0.531359 -0.701500
vn 0.474927 0.531358 -0.701500
vn 0.533901 0.450975 -0.715242
vn 0.533901 0.450975 -0.715242
vn 0.533901 0.450975 -0.715242
vn -0.420424 0.871096 -0.253841
vn -0.420424 0.871096 -0.253841
vn -0.420424 0.871096 -0.253841
vn 0.189221 0.981228 -0.037252
vn 0.189221 0.981228 -0.037252
vn 0.189221 0.981228 -0.037252
vn -0.212186 0.953013 -0.216203
vn -0.212186 0.953013 -0.216203
vn -0.212186 0.953013 -0.216203
vn -0.536322 0.842257 0.054421
vn -0.536322 0.842257 0.054421
vn -0.536322 0.842257 0.054421
vn 0.066761 0.908614 0.412267
vn 0.066761 0.908614 0.412267
vn 0.066761 0.908614 0.412267
vn 0.015566 0.857499 0.514250
vn 0.015566 0.857499 0.514250
vn 0.015566 0.857499 0.514250
vn 0.146987 0.903501 0.402593
vn 0.146987 0.903501 0.402593
vn 0.146987 0.903501 0.402593
vn 0.206958 0.862936 0.460988
vn 0.206958 0.862936 0.460988
vn 0.206958 0.862936 0.460988
vn 0.170029 0.921678 0.348710
vn 0.170029 0.921679 0.348710
vn 0.170029 0.921678 0.348710
vn 0.174691 0.885771 0.429992
vn 0.174691 0.885771 0.429992
vn 0.174691 0.885771 0.429992
vn 0.387302 0.921531 -0.027872
vn 0.387302 0.921531 -0.027872
vn 0.387302 0.921531 -0.027872
vn 0.382078 0.923348 -0.038010
vn 0.382078 0.923348 -0.038010
vn 0.382078 0.923348 -0.038010
vn 0.154899 0.979767 -0.126736
vn 0.154899 0.979768 -0.126736
vn 0.154899 0.979768 -0.126736
s off
g polySurface6 polySurface1
usemtl lambert2SG
f 1/8/1 2/1/2 9/5/3
f 9/5/4 2/1/5 10/3/6
f 2/1/7 3/2/8 10/3/9
f 10/3/10 3/2/11 11/4/12
f 3/2/13 4/6/14 11/4/15
f 11/4/16 4/6/17 12/10/18
f 4/48/19 5/49/20 12/50/21
f 12/50/22 5/49/23 13/51/24
f 5/49/25 6/52/26 13/51/27
f 13/41/28 6/45/29 14/38/30
f 6/12/31 7/13/32 14/14/33
f 14/14/34 7/13/35 15/15/36
f 7/13/37 8/16/38 15/15/39
f 15/15/40 8/16/41 16/18/42
f 8/54/43 1/55/44 16/56/45
f 16/56/46 1/55/47 9/57/48
f 1/20/49 8/21/50 2/22/51
f 8/21/52 7/23/53 2/22/54
f 7/23/55 6/24/56 2/22/57
f 6/24/58 5/25/59 2/22/60
f 5/25/61 4/26/62 2/22/63
f 4/26/64 3/27/65 2/22/66
f 28/28/67 29/29/68 27/30/69
f 27/30/70 29/29/71 26/32/72
f 26/32/73 29/29/74 25/36/75
f 9/5/76 10/3/77 17/9/78
f 17/9/79 10/3/80 18/7/81
f 10/3/82 11/4/83 18/7/84
f 18/7/85 11/4/86 19/11/87
f 11/4/88 12/10/89 19/11/90
f 19/37/91 12/42/92 20/33/93
f 12/50/94 13/51/95 20/53/96
f 20/33/97 13/41/98 21/34/99
f 13/41/100 14/38/101 21/34/102
f 21/34/103 14/38/104 22/31/105
f 14/14/106 15/15/107 22/17/108
f 22/17/109 15/15/110 23/19/111
f 15/46/112 16/43/113 23/35/114
f 23/35/115 16/43/116 24/39/117
f 16/43/118 9/47/119 24/39/120
f 24/58/121 9/59/122 17/60/123
f 18/40/124 25/36/125 17/44/126
f 24/39/127 25/36/128 29/29/129
f 19/37/130 26/32/131 18/40/132
f 18/40/133 26/32/134 25/36/135
f 20/33/136 27/30/137 19/37/138
f 19/37/139 27/30/140 26/32/141
f 21/34/142 28/28/143 20/33/144
f 20/33/145 28/28/146 27/30/147
f 21/34/148 22/31/149 28/28/150
f 28/28/151 22/31/152 29/29/153
f 22/31/154 23/35/155 29/29/156
f 29/29/157 23/35/158 24/39/159
f 17/44/160 25/36/161 24/39/162
