# This file uses centimeters as units for non-parametric coordinates.

mtllib spear.mtl
g default
v -15.449917 -0.964020 8.790918
v -15.337667 -0.964020 8.790918
v -15.474379 -0.860383 8.815382
v -15.313206 -0.860383 8.815382
v -15.474379 -0.860383 8.654206
v -15.313206 -0.860383 8.654206
v -15.449917 -0.964020 8.678670
v -15.337667 -0.964020 8.678670
v -15.470008 -0.964020 8.734794
v -15.317576 -0.964020 8.734794
v -15.284356 -0.860383 8.734794
v -15.503229 -0.860383 8.734794
v -15.385853 -0.860383 8.615514
v -15.388264 -0.964020 8.651723
v -15.386283 -0.964020 8.734794
v -15.388264 -0.964020 8.817865
v -15.385853 -0.860383 8.854073
v -15.303913 -0.836389 8.824674
v -15.384935 -0.836389 8.867826
v -15.483669 -0.836389 8.824674
v -15.515840 -0.836389 8.734794
v -15.483672 -0.836389 8.644914
v -15.384936 -0.836389 8.601761
v -15.303913 -0.836389 8.644914
v -15.271736 -0.836389 8.734794
v -15.387583 10.885887 8.807167
v -15.423854 10.993563 8.783690
v -15.424240 10.993563 8.685897
v -15.387852 10.885887 8.662421
v -15.408991 11.106620 8.734794
v -15.375081 11.106620 8.734794
v -15.361101 10.993563 8.783690
v -15.361101 10.993563 8.685897
v -15.390579 10.993563 9.070426
v -15.408044 10.993563 8.961553
v -15.408239 10.993563 8.508035
v -15.390669 10.993563 8.399162
v -15.413549 10.993563 8.734794
v -15.370523 10.993563 8.734794
v -15.376249 10.993563 8.961553
v -15.376249 10.993563 8.508035
v -15.391763 12.141597 8.739216
v -15.395026 12.141597 8.737781
v -15.395063 12.141597 8.731806
v -15.391781 12.141597 8.730372
v -15.396054 12.141597 8.734794
v -15.388019 12.141597 8.734794
v -15.389088 12.141597 8.737781
v -15.389088 12.141597 8.731806
v -15.355635 10.909256 8.685897
v -15.353420 11.002406 8.734794
v -15.355635 10.909256 8.783690
v -15.387583 10.801581 8.807167
v -15.429254 10.909256 8.783690
v -15.430651 11.002406 8.734794
v -15.429706 10.909256 8.685897
v -15.387852 10.801581 8.662421
vt 0.375000 0.125000
vt 0.375000 0.000000
vt 0.512315 0.000000
vt 0.512315 0.125000
vt 0.375000 0.125472
vt 0.512315 0.125472
vt 0.375000 0.625000
vt 0.375000 0.624528
vt 0.512315 0.624528
vt 0.512315 0.625000
vt 0.375000 0.750000
vt 0.512315 0.750000
vt 0.375000 0.875000
vt 0.512315 0.875000
vt 0.512315 1.000000
vt 0.375000 1.000000
vt 0.750000 0.000000
vt 0.875000 0.000000
vt 0.875000 0.125000
vt 0.750000 0.125000
vt 0.625000 0.000000
vt 0.625000 0.125000
vt 0.875000 0.125472
vt 0.750000 0.125472
vt 0.625000 0.125472
vt 0.125000 0.000000
vt 0.250000 0.000000
vt 0.250000 0.125000
vt 0.125000 0.125000
vt 0.250000 0.125472
vt 0.125000 0.125472
vt 0.625000 0.624528
vt 0.625000 0.625000
vt 0.625000 0.750000
vt 0.625000 0.875000
vt 0.625000 1.000000
vt 1.000000 1.000000
vt 0.000000 1.000000
vt 1.000000 1.000000
vt 0.000000 1.000000
vt 1.000000 1.000000
vt 0.000000 1.000000
vt 1.000000 1.000000
vt 0.000000 1.000000
vt 1.000000 1.000000
vt 0.000000 1.000000
vt 1.000000 1.000000
vt 0.000000 1.000000
vt 1.000000 1.000000
vt 0.000000 1.000000
vt 1.000000 1.000000
vt 0.000000 1.000000
vt 0.000000 0.000000
vt 1.000000 0.000000
vt 1.000000 1.000000
vt 0.000000 1.000000
vt 0.000000 0.000000
vt 1.000000 0.000000
vt 1.000000 1.000000
vt 0.000000 1.000000
vt 0.000000 0.000000
vt 1.000000 0.000000
vt 1.000000 1.000000
vt 0.000000 1.000000
vt 0.000000 0.000000
vt 1.000000 0.000000
vt 1.000000 1.000000
vt 0.000000 1.000000
vt 0.000000 0.000000
vt 1.000000 0.000000
vt 1.000000 1.000000
vt 0.000000 1.000000
vt 0.000000 0.000000
vt 1.000000 0.000000
vt 1.000000 1.000000
vt 0.000000 1.000000
vt 0.000000 0.000000
vt 1.000000 0.000000
vt 1.000000 1.000000
vt 0.000000 1.000000
vt 0.000000 0.000000
vt 1.000000 0.000000
vt 1.000000 1.000000
vt 0.000000 1.000000
vt 0.000000 0.000000
vt 1.000000 0.000000
vt 1.000000 1.000000
vt 0.000000 1.000000
vt 0.000000 0.000000
vt 1.000000 0.000000
vt 1.000000 1.000000
vt 0.000000 1.000000
vt 0.000000 0.000000
vt 1.000000 0.000000
vt 1.000000 1.000000
vt 0.000000 1.000000
vt 0.000000 0.000000
vt 1.000000 0.000000
vt 1.000000 1.000000
vt 0.000000 1.000000
vt 0.000000 0.000000
vt 1.000000 0.000000
vt 1.000000 1.000000
vt 0.000000 1.000000
vt 0.000000 0.000000
vt 1.000000 0.000000
vt 1.000000 1.000000
vt 0.000000 1.000000
vt 0.000000 0.000000
vt 1.000000 0.000000
vt 1.000000 1.000000
vt 0.000000 1.000000
vt 0.000000 0.000000
vt 1.000000 0.000000
vt 1.000000 1.000000
vt 0.000000 1.000000
vt 1.000000 0.874765
vt 0.000000 0.874765
vt 1.000000 0.889987
vt 0.000000 0.889987
vt 1.000000 0.874765
vt 0.000000 0.874765
vt 1.000000 0.850919
vt 0.000000 0.850919
vt 1.000000 0.874765
vt 0.000000 0.874765
vt 1.000000 0.889987
vt 0.000000 0.889987
vt 1.000000 0.874765
vt 0.000000 0.874765
vt 1.000000 0.850919
vt 0.000000 0.850919
vn -0.376558 -0.340433 0.861574
vn -0.382430 -0.296815 0.875013
vn -0.002206 -0.329779 0.944056
vn 0.001063 -0.378520 0.925592
vn -0.396457 -0.142317 0.906955
vn -0.376558 -0.340433 0.861574
vn 0.001063 -0.378520 0.925592
vn -0.000807 -0.158884 0.987297
vn -0.376555 -0.340441 -0.861572
vn -0.396398 -0.142367 -0.906973
vn -0.000786 -0.158901 -0.987294
vn 0.001066 -0.378524 -0.925591
vn -0.382430 -0.296815 -0.875013
vn -0.376555 -0.340441 -0.861572
vn 0.001066 -0.378524 -0.925591
vn -0.002206 -0.329780 -0.944055
vn 0.000000 -1.000000 0.000000
vn 0.000000 -1.000000 0.000000
vn 0.000000 -1.000000 0.000000
vn 0.000000 -1.000000 0.000000
vn 0.000000 -1.000000 0.000000
vn 0.000000 -1.000000 0.000001
vn 0.000000 -1.000000 0.000000
vn 0.000000 -1.000000 0.000000
vn 0.952273 -0.305247 0.000000
vn 0.901341 -0.288922 -0.322659
vn 0.887880 -0.332635 -0.317841
vn 0.937052 -0.349189 0.000000
vn 0.901342 -0.288919 0.322659
vn 0.952273 -0.305247 0.000000
vn 0.937052 -0.349189 0.000000
vn 0.887881 -0.332633 0.317841
vn 0.937052 -0.349189 0.000000
vn 0.887880 -0.332635 -0.317841
vn 0.932504 -0.137854 -0.333816
vn 0.989144 -0.146952 0.000000
vn 0.887881 -0.332633 0.317841
vn 0.937052 -0.349189 0.000000
vn 0.989144 -0.146952 0.000000
vn 0.932504 -0.137854 0.333816
vn -0.901342 -0.288919 -0.322659
vn -0.952274 -0.305244 0.000000
vn -0.937070 -0.349142 0.000002
vn -0.887896 -0.332595 -0.317838
vn -0.952274 -0.305244 0.000000
vn -0.901342 -0.288917 0.322660
vn -0.887898 -0.332586 0.317842
vn -0.937070 -0.349142 0.000002
vn -0.887896 -0.332595 -0.317838
vn -0.937070 -0.349142 0.000002
vn -0.989173 -0.146755 0.000165
vn -0.932728 -0.137732 -0.333239
vn -0.937070 -0.349142 0.000002
vn -0.887898 -0.332586 0.317842
vn -0.932641 -0.137646 0.333519
vn -0.989173 -0.146755 0.000165
vn 0.001066 -0.378524 -0.925591
vn -0.000786 -0.158901 -0.987294
vn 0.464995 -0.146650 -0.873083
vn 0.440789 -0.347458 -0.827634
vn -0.002206 -0.329780 -0.944055
vn 0.001066 -0.378524 -0.925591
vn 0.440789 -0.347458 -0.827634
vn 0.447803 -0.304173 -0.840804
vn 0.000000 -1.000000 0.000000
vn 0.000000 -1.000000 0.000000
vn 0.000000 -1.000000 0.000000
vn 0.000000 -1.000000 0.000000
vn -0.000000 -1.000000 -0.000001
vn 0.000000 -1.000000 0.000000
vn 0.000000 -1.000000 0.000000
vn 0.000000 -1.000000 0.000000
vn 0.001063 -0.378520 0.925592
vn -0.002206 -0.329779 0.944056
vn 0.447803 -0.304171 0.840805
vn 0.440790 -0.347457 0.827634
vn -0.000807 -0.158884 0.987297
vn 0.001063 -0.378520 0.925592
vn 0.440790 -0.347457 0.827634
vn 0.465053 -0.146671 0.873048
vn -0.000807 -0.158884 0.987297
vn 0.465053 -0.146671 0.873048
vn 0.504524 0.004926 0.863384
vn 0.504524 0.004926 0.863384
vn -0.396457 -0.142317 0.906955
vn -0.000807 -0.158884 0.987297
vn -0.425665 0.004876 0.904868
vn -0.425665 0.004876 0.904868
vn -0.989173 -0.146755 0.000165
vn -0.932641 -0.137646 0.333519
vn -0.970998 0.006163 0.239010
vn -0.970998 0.006163 0.239010
vn -0.932728 -0.137732 -0.333239
vn -0.989173 -0.146755 0.000165
vn -0.971736 0.006143 -0.235990
vn -0.971736 0.006143 -0.235990
vn -0.000786 -0.158901 -0.987294
vn -0.396398 -0.142367 -0.906973
vn -0.425215 0.004862 -0.905080
vn -0.425215 0.004862 -0.905080
vn 0.989144 -0.146952 0.000000
vn 0.932504 -0.137854 -0.333816
vn 0.969688 0.005910 -0.244274
vn 0.969688 0.005910 -0.244274
vn 0.932504 -0.137854 0.333816
vn 0.989144 -0.146952 0.000000
vn 0.969688 0.005910 0.244274
vn 0.969688 0.005910 0.244274
vn -0.000786 -0.158901 -0.987294
vn 0.503624 0.004932 -0.863909
vn 0.503624 0.004932 -0.863909
vn 0.464995 -0.146650 -0.873083
vn -0.936382 -0.333737 0.108664
vn -0.936382 -0.333737 0.108664
vn -0.936382 -0.333737 0.108664
vn -0.936382 -0.333737 0.108664
vn -0.936053 -0.334357 -0.109594
vn -0.936053 -0.334357 -0.109594
vn -0.936053 -0.334357 -0.109594
vn -0.936053 -0.334357 -0.109594
vn 0.901598 0.388612 0.190003
vn 0.901598 0.388612 0.190003
vn 0.901598 0.388612 0.190003
vn 0.901598 0.388612 0.190003
vn -0.914918 0.363102 0.176303
vn -0.914918 0.363102 0.176303
vn -0.914918 0.363102 0.176303
vn -0.914918 0.363102 0.176303
vn 0.895883 0.398783 -0.195871
vn 0.895883 0.398783 -0.195871
vn 0.895883 0.398783 -0.195871
vn 0.895883 0.398783 -0.195871
vn -0.914918 0.363102 -0.176303
vn -0.914918 0.363102 -0.176303
vn -0.914918 0.363102 -0.176303
vn -0.914918 0.363102 -0.176303
vn 0.964045 -0.246445 -0.099412
vn 0.964045 -0.246445 -0.099412
vn 0.964045 -0.246445 -0.099412
vn 0.964045 -0.246445 -0.099412
vn 0.964750 -0.243764 0.099181
vn 0.964750 -0.243764 0.099181
vn 0.964750 -0.243764 0.099181
vn 0.964750 -0.243764 0.099181
vn -0.981588 0.049642 0.184445
vn -0.981588 0.049642 0.184445
vn -0.981588 0.049642 0.184445
vn -0.981588 0.049642 0.184445
vn -0.981367 0.050000 -0.185523
vn -0.981367 0.050000 -0.185523
vn -0.981367 0.050000 -0.185523
vn -0.981367 0.050000 -0.185523
vn -0.999467 0.016053 0.028423
vn -0.999467 0.016053 0.028423
vn -0.999467 0.016053 0.028423
vn -0.999467 0.016053 0.028423
vn 0.999434 0.016084 0.029559
vn 0.999434 0.016084 0.029559
vn 0.999434 0.016084 0.029559
vn 0.999434 0.016084 0.029559
vn -0.999496 0.016024 -0.027412
vn -0.999496 0.016024 -0.027412
vn -0.999496 0.016024 -0.027412
vn -0.999496 0.016024 -0.027412
vn 0.999434 0.016085 -0.029559
vn 0.999434 0.016085 -0.029559
vn 0.999434 0.016085 -0.029559
vn 0.999434 0.016085 -0.029559
vn 0.987266 0.043015 -0.153153
vn 0.987266 0.043015 -0.153153
vn 0.987266 0.043015 -0.153153
vn 0.987266 0.043015 -0.153153
vn 0.987418 0.042824 0.152221
vn 0.987418 0.042824 0.152221
vn 0.987418 0.042824 0.152221
vn 0.987418 0.042824 0.152221
vn 0.000000 1.000000 0.000018
vn 0.000000 1.000000 0.000018
vn 0.000000 1.000000 0.000018
vn 0.000000 1.000000 0.000018
vn 0.000000 1.000000 0.000018
vn 0.000000 1.000000 0.000018
vn 0.000000 1.000000 0.000018
vn 0.000000 1.000000 0.000018
vn 0.973937 0.140153 -0.178338
vn 0.973937 0.140153 -0.178338
vn 0.973937 0.140153 -0.178338
vn 0.973937 0.140153 -0.178338
vn 0.973936 0.140153 0.178340
vn 0.973936 0.140153 0.178340
vn 0.973936 0.140153 0.178340
vn 0.973936 0.140153 0.178340
vn 0.583033 0.018906 0.812228
vn 0.583033 0.018906 0.812228
vn 0.583033 0.018906 0.812228
vn 0.583033 0.018906 0.812228
vn -0.484166 0.015510 0.874839
vn -0.484166 0.015510 0.874839
vn -0.484166 0.015510 0.874839
vn -0.484166 0.015510 0.874839
vn -0.976912 0.140234 0.161177
vn -0.976912 0.140234 0.161177
vn -0.976912 0.140234 0.161177
vn -0.976912 0.140234 0.161177
vn -0.978043 0.140744 -0.153700
vn -0.978043 0.140744 -0.153700
vn -0.978043 0.140744 -0.153700
vn -0.978043 0.140744 -0.153700
vn -0.482498 0.015642 -0.875757
vn -0.482498 0.015642 -0.875757
vn -0.482498 0.015642 -0.875757
vn -0.482498 0.015642 -0.875758
vn 0.579873 0.018808 -0.814490
vn 0.579873 0.018808 -0.814490
vn 0.579873 0.018808 -0.814490
vn 0.579873 0.018808 -0.814490
s off
g polySurface85 harpoon:pCube2
usemtl initialShadingGroup
f 3/1/1 1/2/2 16/3/3 17/4/4
f 20/5/5 3/1/6 17/4/7 19/6/8
f 5/7/9 22/8/10 23/9/11 13/10/12
f 7/11/13 5/7/14 13/10/15 14/12/16
f 9/13/17 7/11/18 14/12/19 15/14/20
f 16/15/21 1/16/22 9/13/23 15/14/24
f 10/17/25 8/18/26 6/19/27 11/20/28
f 2/21/29 10/17/30 11/20/31 4/22/32
f 11/20/33 6/19/34 24/23/35 25/24/36
f 4/22/37 11/20/38 25/24/39 18/25/40
f 7/26/41 9/27/42 12/28/43 5/29/44
f 9/27/45 1/2/46 3/1/47 12/28/48
f 5/29/49 12/28/50 21/30/51 22/31/52
f 12/28/53 3/1/54 20/5/55 21/30/56
f 13/10/57 23/9/58 24/32/59 6/33/60
f 14/12/61 13/10/62 6/33/63 8/34/64
f 15/14/65 14/12/66 8/34/67 10/35/68
f 2/36/69 16/15/70 15/14/71 10/35/72
f 17/4/73 16/3/74 2/21/75 4/22/76
f 19/6/77 17/4/78 4/22/79 18/25/80
f 19/6/81 18/25/82 52/121/83 53/124/84
f 20/5/85 19/6/86 53/123/87 54/126/88
f 21/30/89 20/5/90 54/125/91 55/128/92
f 22/31/93 21/30/94 55/127/95 56/130/96
f 23/9/97 22/8/98 56/129/99 57/132/100
f 25/24/101 24/23/102 50/117/103 51/120/104
f 18/25/105 25/24/106 51/119/107 52/122/108
f 23/9/109 57/131/110 50/118/111 24/32/112
f 27/53/113 26/54/114 34/55/115 35/56/116
f 29/57/117 28/58/118 36/59/119 37/60/120
f 30/61/121 27/62/122 35/63/123 38/64/124
f 32/65/125 31/66/126 39/67/127 40/68/128
f 28/69/129 30/70/130 38/71/131 36/72/132
f 31/73/133 33/74/134 41/75/135 39/76/136
f 33/77/137 29/78/138 37/79/139 41/80/140
f 26/81/141 32/82/142 40/83/143 34/84/144
f 35/85/145 34/86/146 42/87/147 43/88/148
f 37/89/149 36/90/150 44/91/151 45/92/152
f 38/93/153 35/94/154 43/95/155 46/96/156
f 40/97/157 39/98/158 47/99/159 48/100/160
f 36/101/161 38/102/162 46/103/163 44/104/164
f 39/105/165 41/106/166 49/107/167 47/108/168
f 41/109/169 37/110/170 45/111/171 49/112/172
f 34/113/173 40/114/174 48/115/175 42/116/176
f 43/88/177 42/116/178 48/100/179 47/108/180 49/112/181 45/92/182 44/104/183 46/96/184
f 51/120/185 50/117/186 33/47/187 31/48/188
f 52/122/189 51/119/190 31/43/191 32/44/192
f 53/124/193 52/121/194 32/51/195 26/52/196
f 54/126/197 53/123/198 26/37/199 27/38/200
f 55/128/201 54/125/202 27/41/203 30/42/204
f 56/130/205 55/127/206 30/45/207 28/46/208
f 57/132/209 56/129/210 28/39/211 29/40/212
f 50/118/213 57/131/214 29/49/215 33/50/216
